<?xml version="1.0" standalone="no"?><!DOCTYPE svg PUBLIC "-//W3C//DTD SVG 1.1//EN" "http://www.w3.org/Graphics/SVG/1.1/DTD/svg11.dtd"><svg t="1533797180221" class="icon" style="" viewBox="0 0 1820 1024" version="1.1" xmlns="http://www.w3.org/2000/svg" p-id="1813" xmlns:xlink="http://www.w3.org/1999/xlink" width="71.09375" height="40"><defs><style type="text/css"></style></defs><path d="M1500.433783 484.109945c81.367316 47.08046 203.674163 67.038481 319.328336 51.686157v20.981509c-138.170915 8.187906-289.647176-25.587206-377.155422-76.249875C1283.454273 388.925537 1266.054973 185.251374 1366.356822 0.511744h59.874063c-102.348826 185.251374-85.973013 390.972514 74.202898 483.598201z m-73.691154 310.116942c60.385807 34.798601 120.771614 108.489755 167.34033 197.021489-43.498251-69.597201-99.790105-127.936032-158.128936-161.711145-162.734633-94.16092-352.07996-1.023488-460.569715 186.786607-1.535232 2.558721-3.070465 5.117441-4.093953 7.676162h-59.874063l6.140929-10.746627c108.489755-187.810095 346.450775-313.69915 509.185408-219.026486z m-460.057971-726.676662C858.706647 255.36032 472.851574 218.514743 310.116942 124.353823 256.895552 94.16092 220.049975 51.174413 197.533233 0.511744h56.291854C276.341829 52.709645 313.69915 96.71964 367.944028 127.936032c162.734633 94.16092 488.203898 79.32034 596.693653-108.489755 3.582209-6.14093 7.164418-12.793603 10.234883-19.446277h18.422788c-6.14093 24.563718-14.84058 47.08046-26.610694 67.550225z" fill="#E8ECF5" p-id="1814"></path><path d="M1489.687156 477.969015c-4.093953-2.046977-8.187906-4.093953-11.770115-6.652673-156.593703-90.578711-175.528236-288.623688-80.855572-470.804598h29.68116c-100.301849 181.157421-86.996502 381.761119 62.944527 477.457271zM1009.671164 45.545227c-66.526737 115.142429-240.007996 150.452774-401.71914 139.194403 142.264868 0 290.158921-49.63918 356.685657-164.781609 3.582209-6.14093 7.164418-12.793603 10.234883-19.446277h54.756621c-5.117441 15.864068-11.770115 30.704648-19.958021 45.033483zM357.197401 121.283358c-4.093953-2.046977-8.187906-4.093953-11.770115-6.652673C295.788106 86.484758 259.966017 47.08046 237.449275 0.511744h16.375812c20.981509 48.615692 55.268366 90.066967 103.372314 120.771614z m1383.244378 419.630185c26.610695 0 53.221389-1.535232 79.32034-5.117441v7.164418c-26.610695 0.511744-53.221389 0-79.32034-2.046977zM1467.170415 809.067466c67.550225 39.404298 135.612194 120.25987 184.227886 214.932534h-37.869066c-45.545227-83.926037-110.536732-155.570215-177.063468-194.462769-162.734633-94.16092-352.07996-1.023488-460.569715 186.786607-1.535232 2.558721-3.070465 5.117441-4.093953 7.676162h-29.681159c3.582209-6.652674 7.164418-13.817091 11.25837-20.469765 107.978011-187.810095 351.056472-288.623688 513.791105-194.462769zM77.785107 484.621689c141.753123 81.87906 284.529735 347.986007 247.684158 539.378311h-50.662668C332.633683 838.748626 194.974513 591.064468 47.08046 505.603198c-15.352324-9.211394-31.216392-16.375812-47.08046-22.004997v-28.145927c27.122439 5.629185 53.221389 15.352324 77.785107 29.169415z" fill="#EDF0F5" p-id="1815"></path><path d="M205.209395 666.802599c-43.498251-69.597201-99.790105-127.936032-158.128935-161.711145-15.352324-9.211394-31.216392-16.375812-47.08046-22.004997v-31.216392c12.793603 4.605697 25.587206 10.234883 37.357321 17.3993 60.897551 35.822089 121.283358 109.513243 167.852074 197.533234z m82.902549 277.877061c1.535232 27.122439 1.023488 53.733133-2.046976 79.32034h-11.258371c8.187906-25.587206 12.281859-52.197901 13.305347-79.32034z" fill="#E8ECF5" p-id="1816"></path></svg>